<svg xmlns="http://www.w3.org/2000/svg" width="495" height="195" viewBox="0 0 495 195" role="img" aria-label="virgoone top languages"><defs><linearGradient id="g2" x1="0" y1="0" x2="1" y2="1"><stop offset="0%" stop-color="#070d10"/><stop offset="100%" stop-color="#040709"/></linearGradient><pattern id="grid2" width="18" height="18" patternUnits="userSpaceOnUse"><path d="M18 0H0V18" fill="none" stroke="#122028" stroke-width="1"/></pattern></defs><rect width="495" height="195" fill="url(#g2)"/><rect width="495" height="195" fill="url(#grid2)" opacity="0.5"/><rect x="0.5" y="0.5" width="494" height="194" fill="none" stroke="#24414f"/><text x="30" y="30" fill="#54d6ff" font-size="14" font-family="ui-monospace, SFMono-Regular, Menlo, monospace">[ STACK :: TOP LANGUAGES ]</text><text x="30" y="60" fill="#d9f5ff" font-size="12" font-family="ui-monospace, SFMono-Regular, Menlo, monospace">typescript</text><rect x="150" y="50" width="280" height="8" fill="#0e151b"/><rect x="150" y="50" width="131" height="8" fill="#54d6ff"/><text x="462" y="60" text-anchor="end" fill="#9fc8d8" font-size="12" font-family="ui-monospace, SFMono-Regular, Menlo, monospace">47.0%</text><text x="30" y="80" fill="#d9f5ff" font-size="12" font-family="ui-monospace, SFMono-Regular, Menlo, monospace">javascript</text><rect x="150" y="70" width="280" height="8" fill="#0e151b"/><rect x="150" y="70" width="62" height="8" fill="#54d6ff"/><text x="462" y="80" text-anchor="end" fill="#9fc8d8" font-size="12" font-family="ui-monospace, SFMono-Regular, Menlo, monospace">22.4%</text><text x="30" y="100" fill="#d9f5ff" font-size="12" font-family="ui-monospace, SFMono-Regular, Menlo, monospace">html</text><rect x="150" y="90" width="280" height="8" fill="#0e151b"/><rect x="150" y="90" width="31" height="8" fill="#54d6ff"/><text x="462" y="100" text-anchor="end" fill="#9fc8d8" font-size="12" font-family="ui-monospace, SFMono-Regular, Menlo, monospace">11.2%</text><text x="30" y="120" fill="#d9f5ff" font-size="12" font-family="ui-monospace, SFMono-Regular, Menlo, monospace">mdx</text><rect x="150" y="110" width="280" height="8" fill="#0e151b"/><rect x="150" y="110" width="21" height="8" fill="#54d6ff"/><text x="462" y="120" text-anchor="end" fill="#9fc8d8" font-size="12" font-family="ui-monospace, SFMono-Regular, Menlo, monospace">7.6%</text><text x="30" y="140" fill="#d9f5ff" font-size="12" font-family="ui-monospace, SFMono-Regular, Menlo, monospace">css</text><rect x="150" y="130" width="280" height="8" fill="#0e151b"/><rect x="150" y="130" width="14" height="8" fill="#54d6ff"/><text x="462" y="140" text-anchor="end" fill="#9fc8d8" font-size="12" font-family="ui-monospace, SFMono-Regular, Menlo, monospace">5.2%</text><text x="30" y="160" fill="#d9f5ff" font-size="12" font-family="ui-monospace, SFMono-Regular, Menlo, monospace">scss</text><rect x="150" y="150" width="280" height="8" fill="#0e151b"/><rect x="150" y="150" width="5" height="8" fill="#54d6ff"/><text x="462" y="160" text-anchor="end" fill="#9fc8d8" font-size="12" font-family="ui-monospace, SFMono-Regular, Menlo, monospace">2.0%</text><text x="30" y="174" fill="#6f95a8" font-size="10" font-family="ui-monospace, SFMono-Regular, Menlo, monospace">scope=owned_non_fork_repos</text></svg>